HIERARCHY
ROOT Hips
{
	OFFSET 0.00000 0.00000 0.00000
	CHANNELS 6 Xposition Yposition Zposition Zrotation Yrotation Xrotation 
	JOINT LHipJoint
	{
		OFFSET 0 0 0
		CHANNELS 3 Zrotation Yrotation Xrotation
		JOINT LeftUpLeg
		{
			OFFSET 3.13874 -1.57224 1.49786
			CHANNELS 3 Zrotation Yrotation Xrotation
			JOINT LeftLeg
			{
				OFFSET 2.10955 -5.79594 0.00000
				CHANNELS 3 Zrotation Yrotation Xrotation
				JOINT LeftFoot
				{
					OFFSET 2.41843 -6.64458 0.00000
					CHANNELS 3 Zrotation Yrotation Xrotation
					JOINT LeftToeBase
					{
						OFFSET 0.04713 -0.12948 1.66229
						CHANNELS 3 Zrotation Yrotation Xrotation
						End Site
						{
							OFFSET 0.00000 -0.00000 0.85167
						}
					}
				}
			}
		}
	}
	JOINT RHipJoint
	{
		OFFSET 0 0 0
		CHANNELS 3 Zrotation Yrotation Xrotation
		JOINT RightUpLeg
		{
			OFFSET -3.13988 -1.57224 1.49786
			CHANNELS 3 Zrotation Yrotation Xrotation
			JOINT RightLeg
			{
				OFFSET -2.15006 -5.90725 0.00000
				CHANNELS 3 Zrotation Yrotation Xrotation
				JOINT RightFoot
				{
					OFFSET -2.34496 -6.44273 0.00000
					CHANNELS 3 Zrotation Yrotation Xrotation
					JOINT RightToeBase
					{
						OFFSET -0.08699 -0.23900 1.55223
						CHANNELS 3 Zrotation Yrotation Xrotation
						End Site
						{
							OFFSET -0.00000 -0.00000 0.80281
						}
					}
				}
			}
		}
	}
	JOINT LowerBack
	{
		OFFSET 0 0 0
		CHANNELS 3 Zrotation Yrotation Xrotation
		JOINT Spine
		{
			OFFSET 0.01292 1.96517 -0.16495
			CHANNELS 3 Zrotation Yrotation Xrotation
			JOINT Spine1
			{
				OFFSET 0.02122 1.88666 0.19706
				CHANNELS 3 Zrotation Yrotation Xrotation
				JOINT Neck
				{
					OFFSET 0 0 0
					CHANNELS 3 Zrotation Yrotation Xrotation
					JOINT Neck1
					{
						OFFSET -0.01683 1.81591 0.07903
						CHANNELS 3 Zrotation Yrotation Xrotation
						JOINT Head
						{
							OFFSET 0.00815 1.74013 -0.47700
							CHANNELS 3 Zrotation Yrotation Xrotation
							End Site
							{
								OFFSET -0.00204 1.83225 -0.16933
							}
						}
					}
				}
				JOINT LeftShoulder
				{
					OFFSET 0 0 0
					CHANNELS 3 Zrotation Yrotation Xrotation
					JOINT LeftArm
					{
						OFFSET 3.38482 1.41533 0.19802
						CHANNELS 3 Zrotation Yrotation Xrotation
						JOINT LeftForeArm
						{
							OFFSET 4.32712 -0.00000 0.00000
							CHANNELS 3 Zrotation Yrotation Xrotation
							JOINT LeftHand
							{
								OFFSET 3.28587 -0.00000 -0.00000
								CHANNELS 3 Zrotation Yrotation Xrotation
								JOINT LeftFingerBase
								{
									OFFSET 0 0 0
									CHANNELS 3 Zrotation Yrotation Xrotation
									JOINT LeftHandIndex1
									{
										OFFSET 0.43316 -0.00000 -0.00000
										CHANNELS 3 Zrotation Yrotation Xrotation
										End Site
										{
											OFFSET 0.34922 -0.00000 -0.00000
										}
									}
								}
								JOINT LThumb
								{
									OFFSET 0 0 0
									CHANNELS 3 Zrotation Yrotation Xrotation
									End Site
									{
										OFFSET 0.35456 -0.00000 0.35456
									}
								}
							}
						}
					}
				}
				JOINT RightShoulder
				{
					OFFSET 0 0 0
					CHANNELS 3 Zrotation Yrotation Xrotation
					JOINT RightArm
					{
						OFFSET -3.09725 1.62858 -0.14144
						CHANNELS 3 Zrotation Yrotation Xrotation
						JOINT RightForeArm
						{
							OFFSET -4.29104 -0.00000 0.00000
							CHANNELS 3 Zrotation Yrotation Xrotation
							JOINT RightHand
							{
								OFFSET -3.22720 -0.00000 -0.00000
								CHANNELS 3 Zrotation Yrotation Xrotation
								JOINT RightFingerBase
								{
									OFFSET 0 0 0
									CHANNELS 3 Zrotation Yrotation Xrotation
									JOINT RightHandIndex1
									{
										OFFSET -0.54362 -0.00000 -0.00000
										CHANNELS 3 Zrotation Yrotation Xrotation
										End Site
										{
											OFFSET -0.43828 -0.00000 -0.00000
										}
									}
								}
								JOINT RThumb
								{
									OFFSET 0 0 0
									CHANNELS 3 Zrotation Yrotation Xrotation
									End Site
									{
										OFFSET -0.44497 -0.00000 0.44497
									}
								}
							}
						}
					}
				}
			}
		}
	}
}
MOTION
Frames: 12
Frame Time: 0.0606061
0.00 0.00 0.00 0 0 0 0 0 0 -21 0 0 0 0 0 0 0 0 0 0 0 0 0 0 21 0 0 0 0 0 0 0 0 0 0 0 0 0 0 0 0 0 0 0 0 0 0 -16 0 0 21 0 0 11 0 0 0 -8 0 0 0 0 0 0 0 0 0 0 0 0 0 0 0 0 0 0 0 0 8 0 0 0 0 0 0 0 0 0 0 0 0 0 0 0 0 0
0.00 0.00 0.00 -168.0270 80.7685 -150.7560 0.0000 0.0000 0.0000 -45.0232 -39.7288 30.6513 0.1312 -2.3352 -6.4329 11.6643 14.6039 -69.2053 8.5909 -16.5371 -54.6642 0.0000 0.0000 0.0000 21.4763 16.8068 -40.4275 -1.6424 -8.0778 22.9505 -0.5679 -12.5567 -23.7697 -1.0771 6.5970 -18.5267 -5.5977 -0.4051 9.6674 3.4925 -0.8207 -8.6386 7.2830 0.5696 -15.0151 -2.9461 -3.2337 -25.8973 5.6251 -4.9287 39.1789 2.2831 -1.0720 19.9508 -0.0000 -0.0000 0.0000 -88.7085 11.5815 17.7240 13.9752 -22.6992 -2.8185 -0.0000 -0.0000 17.0871 26.8608 34.1533 15.8724 -7.1250 0.0000 -0.0000 -8.0952 67.0659 -4.3125 -0.0000 -0.0000 0.0000 68.9836 -23.2061 36.3913 -17.6571 27.7158 -4.3886 0.0000 -0.0000 -18.4011 -20.0518 -21.9117 7.7564 7.1250 -0.0000 -0.0000 9.0922 -52.9329 -1.7864
0.00 0.00 0.00 -167.9350 80.7276 -150.4620 0.0000 0.0000 0.0000 -45.2134 -39.7765 30.7716 0.1110 -2.1485 -5.9162 7.8234 44.6209 -73.9600 3.8903 -12.0130 -35.7778 0.0000 0.0000 0.0000 21.1218 18.7319 -40.2306 -1.1082 -6.6883 18.7950 -0.6451 -13.0160 -24.9070 -1.2081 6.9729 -19.6351 -5.4047 -0.4551 9.4505 3.5022 -0.8462 -8.5803 7.1760 0.5239 -14.7985 -3.3416 -3.5093 -26.1549 5.4965 -5.1491 38.6401 2.2011 -1.2646 19.7051 -0.0000 0.0000 0.0000 -88.4860 11.3760 18.2456 14.5269 -23.4829 -3.0349 -0.0000 -0.0000 15.3656 27.4131 33.6896 16.0498 -7.1250 0.0000 -0.0000 -7.0052 66.7611 -3.6804 -0.0000 0.0000 0.0000 68.8577 -23.6595 35.6967 -17.3849 27.3624 -4.2627 0.0000 -0.0000 -18.0251 -19.6130 -22.1211 7.6426 7.1250 -0.0000 -0.0000 9.6122 -53.0668 -1.9217
0.00 0.00 0.00 -182.3670 78.4908 -164.3150 0.0000 0.0000 0.0000 -50.3929 -35.5338 35.7836 0.0416 -1.3158 -3.6182 5.3550 35.0980 -63.0311 8.7736 -16.6598 -55.3039 0.0000 0.0000 0.0000 17.7292 20.8222 -41.6081 -1.3345 -7.3148 20.6515 -0.7985 -15.3427 -28.5048 -1.4108 7.5125 -21.2429 -4.6237 -1.0981 8.5072 3.3175 -1.5264 -9.4530 6.6477 0.1690 -15.1397 -5.1717 -4.5141 -26.6555 3.2568 -4.9099 37.3061 1.4103 -1.8619 18.9670 0.0000 -0.0000 0.0000 -88.5736 10.1937 23.1777 17.4991 -27.5110 -4.3154 -0.0000 -0.0000 13.4110 28.0564 31.3048 15.4789 -7.1250 0.0000 -0.0000 -4.5553 64.4959 -2.1521 0.0000 -0.0000 0.0000 68.5845 -27.4443 32.6998 -17.1909 27.1087 -4.1739 0.0000 -0.0000 -17.3310 -21.2080 -22.4719 8.4365 7.1250 -0.0000 -0.0000 8.1281 -53.7236 -1.7524
0.00 0.00 0.00 -173.2560 77.8801 -156.3680 0.0000 0.0000 0.0000 -37.9028 -20.6409 23.8616 0.0035 0.3814 1.0480 0.3790 29.2545 -42.5453 8.8803 -16.7301 -55.6753 0.0000 0.0000 0.0000 23.2868 18.0045 -38.9651 -1.7998 -8.4361 24.0467 -0.0627 -14.6682 -21.4934 -1.4370 7.5789 -21.4423 -1.2315 -1.1110 7.8879 3.8942 -0.8757 -9.5839 5.2095 0.1586 -15.0081 -5.8756 -4.6088 -26.8958 2.5310 -4.3892 37.1390 1.2973 -1.8852 18.8982 0.0000 -0.0000 0.0000 -89.0527 11.7091 24.0563 18.5648 -28.8743 -4.8189 -0.0000 -0.0000 11.2278 27.9105 30.1938 14.9174 -7.1250 0.0000 -0.0000 -4.1055 63.2978 -1.8244 0.0000 -0.0000 0.0000 68.9246 -26.9256 33.0607 -17.3174 27.2743 -4.2317 0.0000 -0.0000 -17.8532 -21.3213 -24.6409 9.2429 7.1250 -0.0000 -0.0000 8.8808 -55.9750 -2.4046
0.00 0.00 0.00 -167.2190 79.0707 -151.3930 0.0000 0.0000 0.0000 -30.6475 -8.5944 15.3050 0.3002 3.5230 9.7385 -4.4815 36.3365 -28.4492 8.3417 -16.3649 -53.7844 0.0000 0.0000 0.0000 27.0857 15.7879 -35.2041 -1.9535 -8.7685 25.0737 -0.7138 -9.3755 -21.9950 -0.5058 4.5590 -12.6549 0.2614 -0.8534 7.3047 3.9892 -0.2468 -9.8526 4.3319 0.3151 -15.0291 -5.7910 -4.2572 -26.2170 2.1600 -3.7083 37.6645 1.2897 -1.6478 18.9739 -0.0000 0.0000 0.0000 -89.0909 14.6227 23.7258 19.5265 -30.0677 -5.2921 -0.0000 -0.0000 7.7416 27.5155 29.3869 14.3385 -7.1250 0.0000 -0.0000 -4.1634 62.3481 -1.7573 -0.0000 0.0000 0.0000 69.0008 -25.5812 35.2029 -17.4829 27.4900 -4.3079 0.0000 -0.0000 -17.8737 -20.9529 -24.4617 9.0099 7.1250 -0.0000 -0.0000 9.1895 -55.7160 -2.4312
0.00 0.00 0.00 -163.3850 80.0241 -148.7540 0.0000 0.0000 0.0000 -26.4182 -1.6658 9.1394 1.2216 7.0105 19.7466 -7.8991 43.8477 -10.1784 7.9665 -16.0945 -52.4418 0.0000 0.0000 0.0000 29.5202 14.0142 -30.5160 -1.7082 -8.2297 23.4140 -0.9464 -7.5340 -22.5826 -0.5253 4.6447 -12.8980 0.4703 -0.6893 7.2189 3.9846 0.0048 -9.8262 4.1546 0.4079 -14.9613 -5.5539 -3.9800 -25.6081 2.3136 -3.4438 38.1616 1.4077 -1.4672 19.0895 -0.0000 -0.0000 0.0000 -89.3950 16.4717 21.9677 19.6463 -30.2138 -5.3522 -0.0000 -0.0000 6.3754 28.4901 29.0935 14.7831 -7.1250 0.0000 -0.0000 -2.8372 62.2964 -1.1934 -0.0000 -0.0000 0.0000 69.0472 -24.0110 37.5553 -17.8153 27.9201 -4.4624 0.0000 -0.0000 -17.8013 -21.5306 -25.2399 9.5494 7.1250 -0.0000 -0.0000 8.9246 -56.6317 -2.5588
0.00 0.00 0.00 -144.1960 80.5650 -131.7400 0.0000 0.0000 0.0000 -18.6632 3.4367 -5.2420 5.4978 13.9234 42.9313 -1.6956 34.2000 15.4735 11.5698 -18.2028 -64.6185 0.0000 0.0000 0.0000 35.6190 11.5403 -19.2420 -0.8368 -5.8352 16.3071 -1.1355 -5.7795 -22.9923 -0.7385 5.4898 -15.3111 2.5469 -0.3478 7.1245 4.4707 0.8365 -9.5810 3.3521 0.6100 -14.6602 -4.9051 -3.4443 -24.0967 2.3005 -2.8784 38.9212 1.4606 -1.1130 19.0866 -0.0000 0.0000 0.0000 -89.4100 18.9273 19.7233 19.0830 -29.5217 -5.0717 -0.0000 -0.0000 7.3247 27.2886 29.1208 14.0933 -7.1250 0.0000 -0.0000 -4.3013 62.0099 -1.7813 -0.0000 0.0000 0.0000 68.6803 -20.6192 42.5092 -20.2248 30.9123 -5.6464 0.0000 -0.0000 -18.0378 -21.7059 -25.4219 9.6972 7.1250 -0.0000 -0.0000 8.8205 -56.8552 -2.5764
0.00 0.00 0.00 -129.6550 79.8417 -118.0240 0.0000 0.0000 0.0000 -15.0105 3.5212 -15.8586 8.6417 16.5715 54.8426 -0.7227 14.8773 -4.6614 12.6428 -18.6494 -68.0124 0.0000 0.0000 0.0000 39.3487 9.7589 -12.9341 -0.4544 -4.3243 11.9907 -1.1729 -5.2158 -22.9570 -0.9006 6.0482 -16.9244 5.0080 -0.1304 7.1152 4.8831 1.5660 -9.5008 2.2872 0.7336 -14.5776 -4.8133 -3.3491 -23.2945 2.4036 -2.7705 39.5406 1.5478 -1.0147 19.2410 -0.0000 -0.0000 0.0000 -89.2352 19.5400 18.4894 18.3770 -28.6372 -4.7286 -0.0000 -0.0000 9.5497 26.2886 29.0297 13.4801 -7.1250 0.0000 -0.0000 -5.4440 61.6563 -2.2104 -0.0000 -0.0000 0.0000 67.3470 -17.4492 46.9964 -22.6979 33.7568 -6.9697 0.0000 -0.0000 -17.9468 -23.1678 -23.2681 9.5951 7.1250 -0.0000 -0.0000 6.3958 -54.9329 -1.5650
0.00 0.00 0.00 -99.5645 80.4264 -89.0528 0.0000 0.0000 0.0000 -10.9986 -8.8940 -40.7477 5.7761 14.2078 44.0762 0.1154 14.5111 -21.8208 13.0561 -18.8023 -69.2997 0.0000 0.0000 0.0000 43.9635 11.0756 7.4764 -0.0022 0.3019 -0.8295 -0.6122 -11.4940 -23.0723 -1.2666 7.1336 -20.1119 6.9649 0.9785 7.6759 4.8351 3.2697 -8.5689 0.7889 1.3254 -13.7396 -5.1409 -3.1843 -22.8451 1.5293 -1.8842 40.2899 1.4046 -0.8392 19.5307 -0.0000 -0.0000 0.0000 -89.7757 20.0852 13.0277 17.3020 -27.2542 -4.2247 -0.0000 -0.0000 9.2488 26.9183 29.2029 13.9134 -7.1250 0.0000 -0.0000 -4.7860 61.9994 -1.9813 -0.0000 -0.0000 0.0000 65.2133 -5.2262 52.3873 -27.9435 39.0641 -10.0880 0.0000 -0.0000 -14.1908 -24.1052 -22.9403 9.8927 7.1250 -0.0000 -0.0000 5.2976 -54.7781 -1.2751
0.00 0.00 0.00 -90.2068 78.0945 -78.6217 0.0000 0.0000 0.0000 -3.5890 -15.0505 -42.6752 1.5085 7.7569 21.9782 0.4509 13.5307 -23.7968 12.1090 -18.4364 -66.3340 0.0000 0.0000 0.0000 47.6228 12.8262 13.9613 -0.0508 1.4550 -4.0018 -0.6476 -13.2771 -25.1981 -0.9646 6.2534 -17.5214 9.5298 1.2677 7.3042 5.2427 4.1457 -8.9969 -0.3166 1.5309 -13.9269 -4.7061 -2.3985 -22.9724 0.6748 -0.4873 39.9230 1.2154 -0.3677 19.2547 -0.0000 0.0000 0.0000 -89.3540 21.5536 14.4006 17.5340 -27.5564 -4.3315 -0.0000 -0.0000 9.3515 27.2170 30.4718 14.6177 -7.1250 0.0000 -0.0000 -5.1127 63.3996 -2.2853 -0.0000 0.0000 0.0000 64.2885 -2.3826 53.2789 -31.7820 42.3727 -12.5936 0.0000 -0.0000 -12.7861 -21.4878 -21.7328 8.2933 7.1250 -0.0000 -0.0000 7.5785 -53.0118 -1.5007
0.00 0.00 0.00 -83.5972 76.7896 -71.2238 0.0000 0.0000 0.0000 6.4647 -26.0889 -39.8330 0.2489 3.2101 8.8642 0.4871 22.9886 -35.2763 10.8986 -17.8851 -62.4520 0.0000 0.0000 0.0000 48.1536 11.4571 16.5716 -0.0613 1.5979 -4.3957 -0.4755 -12.6932 -23.0901 -2.0351 8.9388 -25.6039 10.9229 1.5432 6.8047 5.1824 4.6994 -9.3388 -1.2174 1.6557 -13.9212 -4.5572 -1.9875 -23.4985 0.7301 0.0168 39.5409 1.3169 -0.1606 19.1382 0.0000 0.0000 0.0000 -89.3726 22.6732 13.6782 17.7605 -27.8494 -4.4368 -0.0000 -0.0000 9.8045 27.5640 30.4934 14.8356 -7.1250 0.0000 -0.0000 -4.6983 63.5163 -2.1124 0.0000 0.0000 0.0000 63.8925 -0.6588 52.7161 -35.7591 45.3466 -15.3509 0.0000 -0.0000 -12.6338 -20.9216 -21.3964 7.9397 7.1250 -0.0000 -0.0000 8.0331 -52.5605 -1.5026
